<?xml version="1.0" encoding="utf-8"?>
<!-- Generator: Adobe Illustrator 18.1.1, SVG Export Plug-In . SVG Version: 6.00 Build 0)  -->
<svg version="1.1" id="图层_1" xmlns="http://www.w3.org/2000/svg" xmlns:xlink="http://www.w3.org/1999/xlink" x="0px" y="0px"
	 viewBox="0 0 80 80"  enable-background="new 0 0 80 80" xml:space="preserve">
<g>
	<path fill="#1E489D" d="M44,33.7c0,0,0.1-0.1,0.1-0.1c0-1.1-0.4-2.1-1.1-2.9c-0.8-0.8-1.9-1.3-3-1.3c-1.2,0-2.2,0.5-3.1,1.3
		c-0.7,0.8-1.2,1.8-1.2,2.8c0,0.1,0,0.3,0,0.4c0,4.8,1.3,9,3.8,12c0.2,0.2,0.3,0.4,0.5,0.6c0.2-0.2,0.3-0.4,0.5-0.6
		c2.4-3,3.6-7.2,3.6-11.9c0-0.1-0.1-0.1-0.1-0.2C44,33.8,44,33.8,44,33.7z"/>
	<path fill="#1E489D" d="M40,0C17.9,0,0,17.9,0,40s17.9,40,40,40c22.1,0,40-17.9,40-40S62.1,0,40,0z M30.3,57.2
		C26,57.2,20,56.6,16.5,51c-2.3-3.6-3.2-8.7-3.2-17.5c0-1.8,1.5-3.3,3.3-3.3c1.8,0,3.3,1.5,3.3,3.3c0,7.3,0.7,11.6,2.2,14
		c1,1.5,2.7,3.1,8.1,3.1c0.5,0,1,0,1.4-0.1c1.5,2.3,3.4,4.2,5.6,5.6C35.1,56.9,32.8,57.2,30.3,57.2z M63.5,51
		c-3.5,5.6-9.5,6.3-13.8,6.3c-6.3,0-11.6-2.4-15.4-7.1C30.9,46,29,40.2,29,33.9c0,0,0-0.1,0-0.1c0-0.1,0-0.3,0-0.4c0,0,0,0,0,0
		c0-0.1,0-0.1,0-0.2c0.1-2.7,1.2-5.2,3.1-7.1c2.1-2.1,4.9-3.3,7.9-3.3s5.8,1.2,7.9,3.3c1.9,1.9,3,4.4,3.1,7c0,0.1,0,0.2,0,0.3
		c0,0,0,0,0,0.1c0,0,0,0,0,0c0,0.2,0,0.3,0,0.5c0,6.2-1.9,12-5.2,16.1c1.2,0.3,2.5,0.5,3.9,0.5c5.4,0,7.2-1.6,8.1-3.1
		c1.5-2.4,2.2-6.8,2.2-14c0-1.8,1.5-3.3,3.3-3.3c1.8,0,3.3,1.5,3.3,3.3C66.7,42.2,65.8,47.3,63.5,51z"/>
</g>
</svg>
